<svg id="Layer_1" data-name="Layer 1" xmlns="http://www.w3.org/2000/svg" viewBox="0 0 785 154">
  <title>st</title>
  <g>
    <path d="M150.72,60a1.23,1.23,0,0,1,.75.48,1,1,0,0,1,.21.84,1.19,1.19,0,0,1-.51.75q-9.3,6.66-17,12.6a10.61,10.61,0,0,1,.18,5.4,32.58,32.58,0,0,1-3.51,9.47A40.28,40.28,0,0,1,125,97.66a52.25,52.25,0,0,1-6.9,6.17,35.72,35.72,0,0,1-6.9,4.15,17.84,17.84,0,0,1-5.73,1.62,5.57,5.57,0,0,1-.66.06q-2.88,0-3.66-2.16-1.38-3.78,6.42-12.42T131.37,74q-1.8-3.3-7.08-6.09t-16.68-7.41q-3.12-1.26-4.8-2a11.55,11.55,0,0,1-6-4.86,8.63,8.63,0,0,1-.42-7q1.56-5,7.56-11A76,76,0,0,1,117.06,25.3a76.88,76.88,0,0,1,14.34-7.08q7.23-2.64,11.19-1.74a6.19,6.19,0,0,1,1.65.57,6.37,6.37,0,0,1,1.53,1.17,4.42,4.42,0,0,1,1.11,2.13,8.85,8.85,0,0,1,.09,3.21,1.32,1.32,0,0,1-.24.54,1.09,1.09,0,0,1-.48.36,1,1,0,0,1-.6.06,1.13,1.13,0,0,1-.78-.45,1.14,1.14,0,0,1-.24-.87,4.13,4.13,0,0,0-.39-3.18,3.55,3.55,0,0,0-2.13-1.26,13.36,13.36,0,0,0-6,.36,46.37,46.37,0,0,0-8.43,3,73.77,73.77,0,0,0-9.45,5.25,72.24,72.24,0,0,0-13,10.2q-5.28,5.34-6.6,9.66-2,6.18,5.1,9.12l4.8,1.92q4,1.62,5.88,2.43l5,2.16a51,51,0,0,1,4.8,2.31q1.68,1,3.66,2.22a20.07,20.07,0,0,1,3.24,2.49,13.37,13.37,0,0,1,2.1,2.61q7.56-5.88,16.62-12.3A1.08,1.08,0,0,1,150.72,60ZM132.15,79.6a8.68,8.68,0,0,0,.06-3.36,214.76,214.76,0,0,0-20.28,17.64,57.94,57.94,0,0,0-6.72,8c-1.56,2.34-2.18,3.94-1.86,4.82.16.49.82.68,2,.61a16.74,16.74,0,0,0,5-1.5A34.56,34.56,0,0,0,116.7,102a54.05,54.05,0,0,0,6.48-5.73,36.66,36.66,0,0,0,5.55-7.62A31.85,31.85,0,0,0,132.15,79.6Z"/>
    <path d="M199.83,38.8a1.05,1.05,0,0,1,.24.84,1.1,1.1,0,0,1-.48.78,1.06,1.06,0,0,1-1.38-.06q-2.88-1-40.44-.18-3.9,16.38-7.92,35.52-4.8,23.08-5.82,31.74a.53.53,0,0,1,.24.06.91.91,0,0,1,.66.57,1.1,1.1,0,0,1,0,.87,13.94,13.94,0,0,1-.51,1.41,3.52,3.52,0,0,1-.63.9,1.26,1.26,0,0,1-.9.45,2.49,2.49,0,0,1-.42-.06,1.4,1.4,0,0,1-.93-1.26,9.18,9.18,0,0,1,.15-2.76c.16-1.68.52-4.11,1.08-7.26q1.5-9,4.5-23.4,4-19.44,8.1-36.72-4.08.06-10.14.24-9.6.24-11.28.24a1.13,1.13,0,0,1-1.14-1.14A1.16,1.16,0,0,1,133,39a1.06,1.06,0,0,1,.42-.42,1.16,1.16,0,0,1,.57-.15q1.68,0,11.22-.3L156,37.9q1.92-7.92,3.42-13.44a1.1,1.1,0,0,1,.54-.72,1.11,1.11,0,0,1,.87-.12,1.1,1.1,0,0,1,.69.54,1.18,1.18,0,0,1,.12.9q-1.44,5.34-3.3,12.78,18-.48,27.18-.36t11.55.39Q199.41,38.14,199.83,38.8Z"/>
    <path d="M180.21,61.09a1.19,1.19,0,0,1,.87.15,1.13,1.13,0,0,1,.51.72,1,1,0,0,1-.12.84q-.72,1.14-1.56,2.43t-2.49,3.51q-1.65,2.22-3.15,3.87A21.1,21.1,0,0,1,171,75.52a5.44,5.44,0,0,1-3,1.26,1.86,1.86,0,0,1-.84-.18q-2.88-1.08-1.62-9.18A24.3,24.3,0,0,1,162,71.5q-2.34,2-4.08.48-1.62-1.32-1.47-4.68a14.09,14.09,0,0,1,2-6.48,1.1,1.1,0,0,1,.72-.54,1.18,1.18,0,0,1,.9.12,1.1,1.1,0,0,1,.54.69,1.11,1.11,0,0,1-.12.87A11.22,11.22,0,0,0,159,65.5a9.76,9.76,0,0,0-.24,3.09,2.56,2.56,0,0,0,.57,1.59q.3.3,1.14-.42a25.07,25.07,0,0,0,3.9-4.74l.63-.81.51-.66A2.42,2.42,0,0,1,166,63l.42-.27a.72.72,0,0,1,.48-.12,2.22,2.22,0,0,1,.54.15,1.37,1.37,0,0,1,.84,1.35,10.7,10.7,0,0,1-.3,2.73,19.35,19.35,0,0,0-.51,5,14.87,14.87,0,0,0,.27,2.13q.12.39.3.39c.12.08.33,0,.63-.09a6.89,6.89,0,0,0,1.08-.69,16.61,16.61,0,0,0,1.41-1.23q.78-.75,1.77-1.83t2-2.37q1-1.29,2.22-3t2.34-3.63A1,1,0,0,1,180.21,61.09Z"/>
    <path d="M204.27,24.1q1.56,1.56-1.56,11l-.66,2q-1.32,4-2.16,6.42t-2.64,6.72q-1.8,4.32-3.9,8.28-1.74,8.28-3.3,17.64-2.7,16-2.88,21.72a1.32,1.32,0,0,1,1,0,1.19,1.19,0,0,1,.57.68,1.21,1.21,0,0,1,0,.88c-.72,1.51-1.44,2.28-2.16,2.28a2.63,2.63,0,0,1-.48-.06,1.57,1.57,0,0,1-.93-.87,7.85,7.85,0,0,1-.24-2.64c0-1.35.19-3.31.51-5.92q.72-6.24,2.4-16.43,1-5.58,2-10.86-1.86,3-4,6-4,5.76-6.9,4.14Q177,73.72,177,70.21a17.44,17.44,0,0,1,1.74-7.11,15.82,15.82,0,0,1,4.68-6.18q2.7-2,4.8-1.35a3.36,3.36,0,0,1,2.4,3.15q.3-.48.54-1a201.47,201.47,0,0,1,6.39-24.21q3.21-9.15,5.25-9.81A1.24,1.24,0,0,1,204.27,24.1ZM183.93,69.64q2.82-4.08,5.16-8.16a1,1,0,0,1-.72-1.2q.24-2.22-.78-2.52h-.36a5.15,5.15,0,0,0-3.09,1.65,14.66,14.66,0,0,0-3.27,4.71,14.47,14.47,0,0,0-1.29,4,11.81,11.81,0,0,0-.15,3.36q.18,1.29.66,1.53a.64.64,0,0,0,.57,0A5.12,5.12,0,0,0,182,72,17.81,17.81,0,0,0,183.93,69.64Zm16.56-35.22a60.21,60.21,0,0,0,1.74-6.24q-2.94,6.18-6.3,19.26,1.68-4.08,3.9-11Q200.25,35.14,200.49,34.42Z"/>
    <path d="M216.87,60.61a1.11,1.11,0,0,1,.87.18,1,1,0,0,1,.45.75,1.2,1.2,0,0,1-.18.84q-6.78,9.48-12.36,13.44a7.68,7.68,0,0,1-4.38,1.56,4.93,4.93,0,0,1-2.94-.9A5.34,5.34,0,0,1,197,75a9,9,0,0,1-1-2.52,12.45,12.45,0,0,1-.15-4.26,29.84,29.84,0,0,1,1.35-6V62.2a28.07,28.07,0,0,1,4.08-8.64q2.4-3.18,4.32-3.24a1.64,1.64,0,0,1,1.8,1.2q.66,1.74-1.56,4.92a37.56,37.56,0,0,1-6.54,6.84,30.18,30.18,0,0,0-1,4.32,14.65,14.65,0,0,0-.21,3.15,7.35,7.35,0,0,0,.42,2,5.37,5.37,0,0,0,.6,1.23,3.29,3.29,0,0,0,.57.6q1.8,1.3,4.62-.72,5.28-3.72,11.76-12.84A1.29,1.29,0,0,1,216.87,60.61Zm-11.64-7.77q-2.1,1.32-4.14,5.7Q204.57,55.06,205.23,52.84Z"/>
    <path d="M238.17,60.7a1.18,1.18,0,0,1,.9.12,1.1,1.1,0,0,1,.54.69,1.11,1.11,0,0,1-.12.87,66.8,66.8,0,0,1-3.54,5.7,15.45,15.45,0,0,1-3.06,3.3,4.17,4.17,0,0,1-3.06,1q-3-.36-4.74-6.48-1.26-4.14-2.16-4.14a.65.65,0,0,0-.51.15,5.93,5.93,0,0,0-1,1.08,17.81,17.81,0,0,0-1.59,2.37q-.87,1.5-2.28,4.44t-3,7a1.08,1.08,0,0,1-1.08.72.71.71,0,0,1-.24-.06,1,1,0,0,1-.9-1.26q.6-4.92,4.5-18.3.42-1.38.6-2.1a1.21,1.21,0,0,1,.6-.69,1.2,1.2,0,0,1,.87-.09,1.1,1.1,0,0,1,.69.54,1,1,0,0,1,.06.9l-.6,2.1q-1.32,4.62-2,7.2a20.84,20.84,0,0,1,3.36-5,3.86,3.86,0,0,1,2.76-1.32,3,3,0,0,1,2.49,1.62,20.26,20.26,0,0,1,1.77,4.26q1.32,4.62,2.82,4.8a2.34,2.34,0,0,0,1.77-.81,14.51,14.51,0,0,0,2.25-2.7q1.2-1.77,1.83-2.79t1.47-2.58A1.1,1.1,0,0,1,238.17,60.7Z"/>
    <path d="M287,38.8a1.05,1.05,0,0,1,.24.84,1.1,1.1,0,0,1-.48.78,1.06,1.06,0,0,1-1.38-.06q-2.88-1-40.44-.18Q241,56.56,237,75.7q-4.8,23.08-5.82,31.74a.53.53,0,0,1,.24.06.91.91,0,0,1,.66.57,1.1,1.1,0,0,1,0,.87,13.94,13.94,0,0,1-.51,1.41,3.52,3.52,0,0,1-.63.9,1.26,1.26,0,0,1-.9.45,2.49,2.49,0,0,1-.42-.06,1.4,1.4,0,0,1-.93-1.26,9.18,9.18,0,0,1,.15-2.76c.16-1.68.52-4.11,1.08-7.26q1.5-9,4.5-23.4,4-19.44,8.1-36.72-4.08.06-10.14.24-9.6.24-11.28.24a1.13,1.13,0,0,1-1.14-1.14,1.16,1.16,0,0,1,.15-.57,1.06,1.06,0,0,1,.42-.42,1.16,1.16,0,0,1,.57-.15q1.68,0,11.22-.3l10.8-.24Q245,30,246.51,24.46a1.1,1.1,0,0,1,.54-.72,1.11,1.11,0,0,1,.87-.12,1.1,1.1,0,0,1,.69.54,1.18,1.18,0,0,1,.12.9q-1.44,5.34-3.3,12.78,18-.48,27.18-.36t11.55.39Q286.53,38.14,287,38.8Z"/>
    <path d="M270.15,60.16a1,1,0,0,1,.84.27,1.28,1.28,0,0,1,.42.81,1,1,0,0,1-.3.84q-11.64,13.56-13.32,15.66c-.68.88-1.34,1.73-2,2.58a14.19,14.19,0,0,1,.12,6.6,19.54,19.54,0,0,1-2,5.46,13.22,13.22,0,0,1-3.12,3.72,5,5,0,0,1-3.12,1.44,2.07,2.07,0,0,1-1.5-.6q-3.18-3.06,7.14-17.1a15.9,15.9,0,0,0-2.1-4.44,64.82,64.82,0,0,1-4.44-7.5,11.46,11.46,0,0,1-1.32-5.46,9,9,0,0,1,1.29-4.32A9.22,9.22,0,0,1,249.87,55a8.29,8.29,0,0,1,3.54-1.2,6.52,6.52,0,0,1,3.42.54,1.21,1.21,0,0,1,.57.69,1.13,1.13,0,0,1-.72,1.44,1.19,1.19,0,0,1-.87,0,4.82,4.82,0,0,0-4.74.54,6.48,6.48,0,0,0-3.3,5.58A9.51,9.51,0,0,0,249,67.27a71,71,0,0,0,4.08,6.81A19.71,19.71,0,0,1,255,77.62c.32-.41.66-.84,1-1.32q1.68-2.11,13.38-15.72A1.17,1.17,0,0,1,270.15,60.16ZM251.49,91.83A14.06,14.06,0,0,0,253.83,83a66.78,66.78,0,0,0-4.05,6.42,22.21,22.21,0,0,0-1.86,4,4,4,0,0,0-.21,1.71,4,4,0,0,0,1.62-.93A11.59,11.59,0,0,0,251.49,91.83Z"/>
    <path d="M276.45,41.38a2.74,2.74,0,0,1,1.14,2.34,5.88,5.88,0,0,1-1.29,3.36,14.47,14.47,0,0,1-3,3.12,1.12,1.12,0,0,1-.72.24,1.09,1.09,0,0,1-.9-.48,1.05,1.05,0,0,1-.24-.84,1.1,1.1,0,0,1,.48-.78,18,18,0,0,0,1.71-1.56,7.67,7.67,0,0,0,1.26-1.68,3.12,3.12,0,0,0,.45-1.38.57.57,0,0,0-.24-.48,1.1,1.1,0,0,1-.48-.78,1.21,1.21,0,0,1,.21-.87,1,1,0,0,1,.75-.45A1.24,1.24,0,0,1,276.45,41.38Z"/>
    <path d="M358.68,88.47a1.14,1.14,0,0,1,.84.24,1,1,0,0,1,.42.79,1.38,1.38,0,0,1-.27.9c-2.12,2.6-4.36,3.89-6.72,3.89h-.24a6.66,6.66,0,0,1-2.52-.5,10.22,10.22,0,0,1-2.61-1.62Q346.23,91,345.21,90a34.1,34.1,0,0,1-2.55-3l-2.43-3.18c-.6-.81-1.48-2-2.64-3.73-1.68-2.32-3-4.11-3.93-5.39s-2.21-2.86-3.81-4.74a42.74,42.74,0,0,0-4.56-4.68,28.07,28.07,0,0,1-7.2.84q-7.32,29.94-8.46,38l.42-1a1.07,1.07,0,0,1,.63-.6,1.15,1.15,0,0,1,1.5.69,1.19,1.19,0,0,1,0,.87c-.4.92-.75,1.65-1,2.22s-.59,1-.87,1.5a3.93,3.93,0,0,1-.81,1,1.31,1.31,0,0,1-.81.3,1.21,1.21,0,0,1-.48-.12,1.31,1.31,0,0,1-.78-.63,4.88,4.88,0,0,1-.24-1.93,26.49,26.49,0,0,1,.48-4.22q.48-2.77,1.47-7.5T311.67,83q1.62-7,4.08-17a11.05,11.05,0,0,1-4.86-1.56,5.26,5.26,0,0,1-2.28-2.76,2.86,2.86,0,0,1,1.08-3.48q2.58-2,8-.12.78-3.06,1.5-6.18,5.16-21,6.54-27.12a1.25,1.25,0,0,1,.51-.75,1,1,0,0,1,.87-.15,1.13,1.13,0,0,1,.72.51,1.3,1.3,0,0,1,.18.87q-1.38,6.18-6.54,27.18-1.14,4.44-1.62,6.6,1.5.72,3.06,1.62a31.19,31.19,0,0,1,2.94,2.1A38.09,38.09,0,0,0,338.73,56a44.91,44.91,0,0,0,11.1-13,34.8,34.8,0,0,0,4.74-12.42q.9-5.94-1.38-9.66-3.42-5.4-13-4.74a40.21,40.21,0,0,0-10,2,52.94,52.94,0,0,0-9.75,4.29,47.83,47.83,0,0,0-8.28,5.94,27.85,27.85,0,0,0-5.73,6.84Q302.61,42,305.67,48a1.19,1.19,0,0,1,0,.87,1.13,1.13,0,0,1-1.44.72,1.21,1.21,0,0,1-.69-.57q-3.6-7.2.84-14.94a33.21,33.21,0,0,1,8.67-9.54,53.45,53.45,0,0,1,13-7.38,46.23,46.23,0,0,1,14-3.36q11-.72,15.06,5.88,2.64,4.26,1.77,10.83a36.27,36.27,0,0,1-5.07,13.65,47.92,47.92,0,0,1-14.46,15.6,36.8,36.8,0,0,1-9.42,4.8,51.65,51.65,0,0,1,4.23,4.56q2.25,2.7,3.6,4.53c.9,1.21,2.13,2.93,3.69,5.13l2.88,4q1,1.36,2.64,3.42a30.63,30.63,0,0,0,2.79,3.1,14.55,14.55,0,0,0,2.49,1.83,5.8,5.8,0,0,0,2.52.87q2.52,0,5.16-3.12A1.16,1.16,0,0,1,358.68,88.47ZM310.77,61a2.41,2.41,0,0,0,.84,1.14,6.58,6.58,0,0,0,1.89,1,12.19,12.19,0,0,0,2.79.63l.84-3.36a11.75,11.75,0,0,0-4.08-1,3.23,3.23,0,0,0-2,.54A.91.91,0,0,0,310.77,61Zm7.86,2.82a22.28,22.28,0,0,0,4.26-.42q-.6-.42-1.2-.78-1.14-.66-2.46-1.32Q318.81,63,318.63,63.82Z"/>
    <path d="M373.77,60.61a1.11,1.11,0,0,1,.87.18,1,1,0,0,1,.45.75,1.2,1.2,0,0,1-.18.84q-6.78,9.48-12.36,13.44a7.68,7.68,0,0,1-4.38,1.56,4.93,4.93,0,0,1-2.94-.9A5.34,5.34,0,0,1,353.94,75a9,9,0,0,1-1-2.52,12.45,12.45,0,0,1-.15-4.26,29.84,29.84,0,0,1,1.35-6V62.2a28.07,28.07,0,0,1,4.08-8.64q2.4-3.18,4.32-3.24a1.64,1.64,0,0,1,1.8,1.2q.66,1.74-1.56,4.92a37.56,37.56,0,0,1-6.54,6.84,30.18,30.18,0,0,0-1,4.32,14.65,14.65,0,0,0-.21,3.15,7.35,7.35,0,0,0,.42,2A5.37,5.37,0,0,0,356,74a3.29,3.29,0,0,0,.57.6q1.8,1.3,4.62-.72,5.28-3.72,11.76-12.84A1.29,1.29,0,0,1,373.77,60.61Zm-11.64-7.77q-2.1,1.32-4.14,5.7Q361.47,55.06,362.13,52.84Z"/>
    <path d="M384.63,51.94a3.61,3.61,0,0,1,2.4,2.85,10.77,10.77,0,0,1-.18,5.37q-1.44,5.28-7.08,9.78a28.62,28.62,0,0,1-5.16,3.36q-2.16,8.82-4.83,21.93T365.85,116a1.06,1.06,0,0,1-1.14,1h-.18a1.47,1.47,0,0,1-.54-.24,1.15,1.15,0,0,1-.36-.48,1,1,0,0,1-.06-.6q1.56-10.51,6.9-40.56c-.48.15-1,.3-1.44.42a1,1,0,0,1-.9-.06,1.13,1.13,0,0,1-.54-.72,1.17,1.17,0,0,1,.12-.9,1.1,1.1,0,0,1,.72-.54,16.28,16.28,0,0,0,2.46-.84q.42-2.1,1.14-6.24,3.12-17.52,3.18-18.3a1.1,1.1,0,0,1,.33-.81,1,1,0,0,1,.75-.33,1,1,0,0,1,.84.27,1.28,1.28,0,0,1,.42.81q0,.48-2.82,16.32.9-2.52,1.83-4.56a31.64,31.64,0,0,1,1.74-3.36A13.92,13.92,0,0,1,380,54a9.43,9.43,0,0,1,1.5-1.35,5.26,5.26,0,0,1,1.29-.66,2.89,2.89,0,0,1,1.08-.18A3.24,3.24,0,0,1,384.63,51.94Zm0,7.62a9.6,9.6,0,0,0,.27-3.78q-.27-1.44-.93-1.62a.24.24,0,0,0-.18-.06,1.61,1.61,0,0,0-.81.27,6.38,6.38,0,0,0-1.17,1,12.59,12.59,0,0,0-1.47,1.92,26.56,26.56,0,0,0-1.68,3.21q-.93,2-1.83,4.68-.6,1.8-1.44,5a26.73,26.73,0,0,0,5.91-4.86A14.39,14.39,0,0,0,384.63,59.56Z"/>
    <path d="M415.38,60.55a1.1,1.1,0,0,1,.87.06,1.22,1.22,0,0,1,.6.66,1,1,0,0,1-.06.87q-1.62,3.48-3.66,7.14t-4.47,7.41a37.31,37.31,0,0,1-4.83,6.11c-1.6,1.58-3,2.38-4.08,2.38A1.72,1.72,0,0,1,399,85q-2.46-1-1.56-7.44a108.88,108.88,0,0,1,4.44-17.16.12.12,0,0,0-.09,0,.12.12,0,0,1-.09,0c-.88.6-1.62,1.06-2.19,1.38a23,23,0,0,1-2.34,1.08,6.61,6.61,0,0,1-2.79.54,4.66,4.66,0,0,1-2.46-.84,5.36,5.36,0,0,1-2.34-4.5,11.35,11.35,0,0,1,2.16-6.3A16.27,16.27,0,0,1,395,48c1.29-1.08,2.41-1.32,3.33-.72a2,2,0,0,1,1,1.56,10.62,10.62,0,0,1-1.05,4.17,67.29,67.29,0,0,1-4,8.07q1.86.24,6.12-2.58a12.41,12.41,0,0,1,1.17-.75c.25-.14.56-.29.9-.45a1.51,1.51,0,0,1,.87-.18,1.85,1.85,0,0,1,.72.3c.6.48.69,1.32.3,2.52q-6,18.6-4.74,22.56l.18.36q.48,0,1.47-.78a22.09,22.09,0,0,0,2.46-2.65q1.47-1.78,3.18-4.31T410.7,69q2.07-3.66,4-7.8A1.15,1.15,0,0,1,415.38,60.55Zm-23.31-4a4.25,4.25,0,0,0,.24,3.36c2.91-5.08,4.48-8.52,4.68-10.32a8.2,8.2,0,0,0-1.65,1.38,15.77,15.77,0,0,0-1.92,2.49A9.71,9.71,0,0,0,392.07,56.5Z"/>
    <path d="M433.29,60.61a1.13,1.13,0,0,1,.87.18,1.06,1.06,0,0,1,.45.75,1.26,1.26,0,0,1-.19.84q-6.78,9.48-12.35,13.44a7.71,7.71,0,0,1-4.38,1.56,4.88,4.88,0,0,1-2.94-.9A5.18,5.18,0,0,1,413.46,75a9.33,9.33,0,0,1-1-2.52,12.48,12.48,0,0,1-.14-4.26,29.84,29.84,0,0,1,1.35-6V62.2a27.62,27.62,0,0,1,4.08-8.64q2.38-3.18,4.32-3.24a1.65,1.65,0,0,1,1.8,1.2q.64,1.74-1.57,4.92a37.12,37.12,0,0,1-6.53,6.84,30.18,30.18,0,0,0-1,4.32,14,14,0,0,0-.21,3.15,6.69,6.69,0,0,0,.42,2,5.43,5.43,0,0,0,.59,1.23,3.33,3.33,0,0,0,.58.6c1.2.87,2.73.63,4.62-.72Q426,70.18,432.5,61.06A1.32,1.32,0,0,1,433.29,60.61Zm-11.64-7.77q-2.11,1.32-4.15,5.7Q421,55.06,421.65,52.84Z"/>
    <path d="M457.16,60.16a1,1,0,0,1,.84.27,1.28,1.28,0,0,1,.42.81,1,1,0,0,1-.3.84Q446.48,75.64,444.8,77.74c-.68.88-1.34,1.73-2,2.58a14.19,14.19,0,0,1,.12,6.6,19.54,19.54,0,0,1-2,5.46,13.22,13.22,0,0,1-3.12,3.72,5,5,0,0,1-3.12,1.44,2.07,2.07,0,0,1-1.5-.6q-3.18-3.06,7.14-17.1a15.9,15.9,0,0,0-2.1-4.44,64.82,64.82,0,0,1-4.44-7.5,11.46,11.46,0,0,1-1.32-5.46,9,9,0,0,1,1.29-4.32A9.22,9.22,0,0,1,436.88,55a8.29,8.29,0,0,1,3.54-1.2,6.52,6.52,0,0,1,3.42.54,1.21,1.21,0,0,1,.57.69,1.13,1.13,0,0,1-.72,1.44,1.19,1.19,0,0,1-.87,0,4.82,4.82,0,0,0-4.74.54,6.48,6.48,0,0,0-3.3,5.58A9.51,9.51,0,0,0,436,67.27a71,71,0,0,0,4.08,6.81A19.71,19.71,0,0,1,442,77.62c.32-.41.66-.84,1-1.32q1.68-2.11,13.38-15.72A1.17,1.17,0,0,1,457.16,60.16ZM438.5,91.83A14.06,14.06,0,0,0,440.84,83a66.78,66.78,0,0,0-4,6.42,22.21,22.21,0,0,0-1.86,4,4,4,0,0,0-.21,1.71,4,4,0,0,0,1.62-.93A11.59,11.59,0,0,0,438.5,91.83Z"/>
    <path d="M474.92,60.61a1.11,1.11,0,0,1,.87.18,1,1,0,0,1,.45.75,1.2,1.2,0,0,1-.18.84q-6.78,9.48-12.36,13.44a7.68,7.68,0,0,1-4.38,1.56,4.93,4.93,0,0,1-2.94-.9A5.34,5.34,0,0,1,455.09,75a9,9,0,0,1-1-2.52,12.45,12.45,0,0,1-.15-4.26,29.84,29.84,0,0,1,1.35-6V62.2a28.07,28.07,0,0,1,4.08-8.64q2.4-3.18,4.32-3.24a1.64,1.64,0,0,1,1.8,1.2q.66,1.74-1.56,4.92a37.56,37.56,0,0,1-6.54,6.84,30.18,30.18,0,0,0-1,4.32,14.65,14.65,0,0,0-.21,3.15,7.35,7.35,0,0,0,.42,2,5.37,5.37,0,0,0,.6,1.23,3.29,3.29,0,0,0,.57.6q1.8,1.3,4.62-.72,5.28-3.72,11.76-12.84A1.29,1.29,0,0,1,474.92,60.61Zm-11.64-7.77q-2.1,1.32-4.14,5.7Q462.62,55.06,463.28,52.84Z"/>
    <path d="M496.22,60.7a1.18,1.18,0,0,1,.9.12,1.1,1.1,0,0,1,.54.69,1.11,1.11,0,0,1-.12.87,66.8,66.8,0,0,1-3.54,5.7,15.45,15.45,0,0,1-3.06,3.3,4.17,4.17,0,0,1-3.06,1q-3-.36-4.74-6.48-1.26-4.14-2.16-4.14a.65.65,0,0,0-.51.15A5.93,5.93,0,0,0,479.42,63a17.81,17.81,0,0,0-1.59,2.37q-.87,1.5-2.28,4.44t-3,7a1.08,1.08,0,0,1-1.08.72.71.71,0,0,1-.24-.06,1,1,0,0,1-.9-1.26q.6-4.92,4.5-18.3.42-1.38.6-2.1a1.21,1.21,0,0,1,.6-.69,1.2,1.2,0,0,1,.87-.09,1.1,1.1,0,0,1,.69.54,1,1,0,0,1,.06.9l-.6,2.1q-1.32,4.62-2,7.2a20.84,20.84,0,0,1,3.36-5,3.86,3.86,0,0,1,2.76-1.32,3,3,0,0,1,2.49,1.62,20.26,20.26,0,0,1,1.77,4.26q1.32,4.62,2.82,4.8a2.34,2.34,0,0,0,1.77-.81,14.51,14.51,0,0,0,2.25-2.7q1.2-1.77,1.83-2.79t1.47-2.58A1.1,1.1,0,0,1,496.22,60.7Z"/>
    <path d="M545,38.8a1.05,1.05,0,0,1,.24.84,1.1,1.1,0,0,1-.48.78,1.06,1.06,0,0,1-1.38-.06q-2.88-1-40.44-.18Q499,56.56,495,75.7q-4.8,23.08-5.82,31.74a.53.53,0,0,1,.24.06.91.91,0,0,1,.66.57,1.1,1.1,0,0,1,0,.87,13.94,13.94,0,0,1-.51,1.41,3.52,3.52,0,0,1-.63.9,1.26,1.26,0,0,1-.9.45,2.49,2.49,0,0,1-.42-.06,1.4,1.4,0,0,1-.93-1.26,9.18,9.18,0,0,1,.15-2.76c.16-1.68.52-4.11,1.08-7.26q1.5-9,4.5-23.4,4-19.44,8.1-36.72-4.08.06-10.14.24-9.6.24-11.28.24A1.13,1.13,0,0,1,478,39.58a1.16,1.16,0,0,1,.15-.57,1.06,1.06,0,0,1,.42-.42,1.16,1.16,0,0,1,.57-.15q1.68,0,11.22-.3l10.8-.24q1.92-7.92,3.42-13.44a1.1,1.1,0,0,1,.54-.72,1.11,1.11,0,0,1,.87-.12,1.1,1.1,0,0,1,.69.54,1.18,1.18,0,0,1,.12.9q-1.44,5.34-3.3,12.78,18-.48,27.18-.36t11.55.39Q544.58,38.14,545,38.8Z"/>
    <path d="M526.61,60.79a1.13,1.13,0,0,1,1.44.72,1.19,1.19,0,0,1,0,.87q-6.42,13.26-11.46,13.26a5.57,5.57,0,0,1-.66-.06q-4-.78-5-10.8-2.94,4-5.22,6.48-2,2.16-3.48,1.5t-1.38-3.12a17.37,17.37,0,0,1,1-5.16,23.64,23.64,0,0,1,2.82-5.82,8.22,8.22,0,0,1,4-3.54q3.18-1.14,5.88,2.1a1.15,1.15,0,0,1,.27.84,1.06,1.06,0,0,1-.39.78,1.15,1.15,0,0,1-.84.27,1.06,1.06,0,0,1-.78-.39q-2.1-2.52-4.26-1-2.46,1.74-4.11,6.27t-1.29,6.45q.36-.3.84-.78a81.36,81.36,0,0,0,5.88-7.38l1.08-1.5a1.12,1.12,0,0,1,1.26-.39,1.07,1.07,0,0,1,.84,1,45.75,45.75,0,0,0,.48,5.22,26.77,26.77,0,0,0,.72,3.45,8.51,8.51,0,0,0,.84,1.95,4.15,4.15,0,0,0,.75,1,.91.91,0,0,0,.57.21,2.81,2.81,0,0,0,2.13-.81,18.67,18.67,0,0,0,3.3-3.84,50.75,50.75,0,0,0,4.11-7.23A1.18,1.18,0,0,1,526.61,60.79Z"/>
    <path d="M575.3,38.8a1.05,1.05,0,0,1,.24.84,1.1,1.1,0,0,1-.48.78,1.06,1.06,0,0,1-1.38-.06q-2.88-1-40.44-.18-3.9,16.38-7.92,35.52-4.8,23.08-5.82,31.74a.53.53,0,0,1,.24.06.91.91,0,0,1,.66.57,1.1,1.1,0,0,1,0,.87,13.94,13.94,0,0,1-.51,1.41,3.52,3.52,0,0,1-.63.9,1.26,1.26,0,0,1-.9.45,2.49,2.49,0,0,1-.42-.06,1.4,1.4,0,0,1-.93-1.26,9.18,9.18,0,0,1,.15-2.76c.16-1.68.52-4.11,1.08-7.26q1.5-9,4.5-23.4,4-19.44,8.1-36.72-4.08.06-10.14.24-9.6.24-11.28.24a1.13,1.13,0,0,1-1.14-1.14,1.16,1.16,0,0,1,.15-.57,1.06,1.06,0,0,1,.42-.42,1.16,1.16,0,0,1,.57-.15q1.68,0,11.22-.3l10.8-.24q1.92-7.92,3.42-13.44a1.1,1.1,0,0,1,.54-.72,1.11,1.11,0,0,1,.87-.12,1.1,1.1,0,0,1,.69.54,1.18,1.18,0,0,1,.12.9q-1.44,5.34-3.3,12.78,18-.48,27.18-.36t11.55.39Q574.88,38.14,575.3,38.8Z"/>
    <path d="M549.35,60.4a1.11,1.11,0,0,1,.87.12,1,1,0,0,1,.51.72,1.28,1.28,0,0,1-.15.9,54,54,0,0,1-4.05,5.49,33.27,33.27,0,0,1-5.34,5.13c-2,1.51-3.65,2.28-5,2.28a3.25,3.25,0,0,1-1.26-.24q-4-1.74-.84-14.1a1.1,1.1,0,0,1,.54-.72,1.11,1.11,0,0,1,.87-.12,1.1,1.1,0,0,1,.69.54,1.05,1.05,0,0,1,.12.84q-.72,2.88-1,5.07a20.63,20.63,0,0,0-.3,3.33,7.93,7.93,0,0,0,.24,1.89,2.58,2.58,0,0,0,.36.9,1.1,1.1,0,0,0,.27.21q1.56.66,5.67-3.12a40.75,40.75,0,0,0,7.11-8.64A1.44,1.44,0,0,1,549.35,60.4Zm-13.29-4.68q-1.74-.12-1.08-1.44a3,3,0,0,1,1.56-1.44q1.5-.48,1.8.78a1.46,1.46,0,0,1-.9,1.8A3,3,0,0,1,536.06,55.72Z"/>
    <path d="M576.41,60.85a1.21,1.21,0,0,1,.84.27,1,1,0,0,1,.42.78,1.15,1.15,0,0,1-.27.84,13.43,13.43,0,0,1-5.22,3.81,8.65,8.65,0,0,1-5.58.45,7.4,7.4,0,0,1-4.74-3.78,42.23,42.23,0,0,1-4.56,10.26,33.33,33.33,0,0,1-4.14,5.67,9.74,9.74,0,0,1-3.78,2.79,4.35,4.35,0,0,1-1.14.18,2.44,2.44,0,0,1-1.8-.72Q543,77.86,549.92,57a1,1,0,0,1,.57-.63,1.18,1.18,0,0,1,.9-.06,1.1,1.1,0,0,1,.66.57,1.08,1.08,0,0,1,0,.9q-1.74,5.28-2.82,9.45t-1.41,6.36a20,20,0,0,0-.27,3.69,10.15,10.15,0,0,0,.18,1.89.93.93,0,0,0,.3.5q.18.2.6,0,1.68-.52,4.2-3.77a41.72,41.72,0,0,0,4.74-8,32.18,32.18,0,0,0,2.82-9,1.06,1.06,0,0,1,.39-.69,1.5,1.5,0,0,1,.75-.33,1.05,1.05,0,0,1,1.14,1q1,5,4.5,5.94a6.52,6.52,0,0,0,4.29-.42,10.68,10.68,0,0,0,4.11-3.12A1.24,1.24,0,0,1,576.41,60.85Z"/>
    <path d="M594.86,60.61a1.11,1.11,0,0,1,.87.18,1,1,0,0,1,.45.75,1.2,1.2,0,0,1-.18.84q-6.78,9.48-12.36,13.44a7.68,7.68,0,0,1-4.38,1.56,4.93,4.93,0,0,1-2.94-.9A5.34,5.34,0,0,1,575,75a9,9,0,0,1-1-2.52,12.45,12.45,0,0,1-.15-4.26,29.84,29.84,0,0,1,1.35-6V62.2a28.07,28.07,0,0,1,4.08-8.64q2.4-3.18,4.32-3.24a1.64,1.64,0,0,1,1.8,1.2q.66,1.74-1.56,4.92a37.56,37.56,0,0,1-6.54,6.84,30.18,30.18,0,0,0-1,4.32,14.65,14.65,0,0,0-.21,3.15,7.35,7.35,0,0,0,.42,2,5.37,5.37,0,0,0,.6,1.23,3.29,3.29,0,0,0,.57.6q1.8,1.3,4.62-.72,5.28-3.72,11.76-12.84A1.29,1.29,0,0,1,594.86,60.61Zm-11.64-7.77q-2.1,1.32-4.14,5.7Q582.56,55.06,583.22,52.84Z"/>
  </g>
</svg>
